<svg xmlns="http://www.w3.org/2000/svg" xmlns:xlink="http://www.w3.org/1999/xlink" viewBox="0 0 1684.82 599.96"><defs><style>.cls-1,.cls-10,.cls-2,.cls-8{fill:none;}.cls-1{stroke:#018034;}.cls-1,.cls-10,.cls-12,.cls-17,.cls-2,.cls-3,.cls-4,.cls-5,.cls-6,.cls-7,.cls-8{stroke-miterlimit:10;}.cls-1,.cls-2{stroke-width:3.11px;}.cls-17,.cls-2{stroke:#b75340;}.cls-3{fill:#906d50;}.cls-3,.cls-4,.cls-5,.cls-6,.cls-7{stroke:#87534c;}.cls-10,.cls-3,.cls-4,.cls-5,.cls-6,.cls-7,.cls-8{stroke-width:2.94px;}.cls-4{fill:#b68a65;}.cls-5{fill:#cd9b72;}.cls-6{fill:#dcb28a;}.cls-7{fill:#a77e5d;}.cls-8{stroke:#cd9368;}.cls-9{fill:#cd9368;}.cls-10{stroke:#9b5f57;}.cls-11{fill:#017931;}.cls-12{fill:#6cad1a;stroke:#76c68b;}.cls-12,.cls-17{stroke-width:1.15px;}.cls-13{clip-path:url(#clip-path);}.cls-14{fill:#b5dc10;}.cls-15{fill:#018837;}.cls-16{fill:#b75340;}.cls-17{fill:#fb7158;}.cls-18{clip-path:url(#clip-path-2);}.cls-19{fill:#fb9278;}</style><clipPath id="clip-path" transform="translate(0 16.92)"><path class="cls-1" d="M634.71,1.55H412.31L273.57,173.14s19.21,67.39,12.89,116c-3,23.44-14.28,60.29-14.28,60.29l269.33,7.72a390.54,390.54,0,0,0,14.28-68c4.08-36.42-12.9-116-12.9-116Z"/></clipPath><clipPath id="clip-path-2" transform="translate(0 16.92)"><path class="cls-2" d="M1047.65,1.55h222.4l138.74,171.59s-19.21,67.39-12.9,116c3,23.44,14.28,60.29,14.28,60.29l-269.32,7.72a390.54,390.54,0,0,1-14.28-68c-4.08-36.42,12.89-116,12.89-116Z"/></clipPath></defs><g id="Layer_2" data-name="Layer 2"><g id="Layer_1-2" data-name="Layer 1"><polygon class="cls-3" points="1243.33 483.23 1261.58 504 1317.76 504 1369.43 233.92 1289.63 233.92 1243.33 483.23"/><polygon class="cls-3" points="1261.58 504 1338.78 504 1391.16 233.92 1311.36 233.92 1261.58 504"/><polygon class="cls-3" points="462.83 483.23 444.57 504 388.4 504 337.73 233.92 417.53 233.92 462.83 483.23"/><polygon class="cls-3" points="444.57 504 367.38 504 316 233.92 395.8 233.92 444.57 504"/><polygon class="cls-4" points="842.26 250.73 90.7 250.73 137.47 326.3 842.26 326.3 1547.06 326.3 1593.83 250.73 842.26 250.73"/><path class="cls-5" d="M1659.79,233.81H24.74c-4.18,0-7.76-2.4-8.54-5.71L4.39,177.89H1680.14l-11.81,50.21C1667.55,231.41,1664,233.81,1659.79,233.81Z" transform="translate(0 16.92)"/><path class="cls-6" d="M1646,153.56l-14.65-2.42h11.31q-4.85-3.52-10-7.28h-5.84l3.15-2c-26.16-19.27-55.85-42-71.35-56.82l-11.24-1,8.48-1.71c-.88-.89-1.7-1.75-2.45-2.56-7.45-8.12-16.67-17.59-25.94-26.88l-8.38-1.08,5.33-2c-9.08-9.06-18-17.78-25.23-24.74L1484,23.75l12.09-1.57c-7.6-7.32-12.61-12-12.61-12H201l-10.78,10,12.05,1.56L187,23.06,160.75,47.37l6.46,2.38-10.49,1.36L126.13,79.4,138.91,82l-17.22,1.53-7.37,6.82C102,101.73,77.65,121.24,55,139l4.48,2.82H51.39c-3.18,2.48-6.31,4.92-9.36,7.28H55L38.5,151.78C19.29,166.64,4.39,177.89,4.39,177.89H1680.14S1665.51,167.7,1646,153.56Z" transform="translate(0 16.92)"/><polygon class="cls-3" points="303.35 577.72 285.09 598.49 228.92 598.49 172.87 326.3 252.67 326.3 303.35 577.72"/><polygon class="cls-7" points="285.09 598.49 207.89 598.49 151.13 326.3 230.94 326.3 285.09 598.49"/><polygon class="cls-3" points="1373.13 577.72 1391.38 598.49 1447.56 598.49 1503.6 326.3 1423.8 326.3 1373.13 577.72"/><polygon class="cls-7" points="1391.38 598.49 1468.58 598.49 1525.34 326.3 1445.54 326.3 1391.38 598.49"/><path class="cls-8" d="M225.41,21.36c171.93,10.84,344.68,13.13,517,6.86,22-.8,44.89-1.59,64.92,5.72C800.56,36.29,793.22,37.2,786,38c-110.9,12.44-223.52,8-335.35,3.5L259.24,33.83c-26.94-1.08-54.76-2-80,5.59l60.36,2.28" transform="translate(0 16.92)"/><path class="cls-8" d="M172,53.16c62.2,12.64,127.51,5,191.6,3,52.46-1.62,105,.63,157.37,2.88l223.59,9.6c22.87,1,46.4,2.09,67.16,9.93-24.24,2.78-48.84,2.45-73.31,2.12L290.61,74.65c-47.59-.65-95.35-1.3-142.4-7.13" transform="translate(0 16.92)"/><path class="cls-8" d="M106.36,100.47a916.45,916.45,0,0,1,222.05-.37c26.12,3.15,52,7.43,78.35,9.3,59.1,4.19,118.32-3.93,177.33-8.91A1685.29,1685.29,0,0,1,832.28,97.9" transform="translate(0 16.92)"/><path class="cls-8" d="M298,88.28c60.55-11.27,123.8,3.51,185.81.22,20.51-1.09,42.67-3.89,60.39,4.53a838.19,838.19,0,0,1-198.47-2.6c-15.4-2.05-31.34-4.51-46.4-1.2" transform="translate(0 16.92)"/><path class="cls-8" d="M92,119.05c72-11.34,145.79,4.41,218.92,9.54C477.26,140.26,644.72,96.65,810.5,113" transform="translate(0 16.92)"/><path class="cls-8" d="M54,149.28c211-4.73,422.1-2.21,633.17-3.52,40.7-.25,84.31.94,124.61,5.55" transform="translate(0 16.92)"/><path class="cls-8" d="M76,129.77l67.8-.29c10.27,0,21.66.24,29.11,6l-111,3" transform="translate(0 16.92)"/><path class="cls-8" d="M843.16,126.41c-33.35-3-76.23,2.2-109.51,5.74,32.61,6.38,75.17,1.27,108.49,4.43" transform="translate(0 16.92)"/><path class="cls-8" d="M840.79,156.86c-81.63,9-164.45-1.26-246.83-1.11-19.49,0-39,.66-58.44-.46-18.49-1.08-37.7-3.65-55.09,1.53" transform="translate(0 16.92)"/><path class="cls-8" d="M479.87,156.91c61.43,8.47,124,9.37,186.33,10.25L845,169.69" transform="translate(0 16.92)"/><path class="cls-8" d="M1458.74,21.36c-171.93,10.84-344.68,13.13-517,6.86-22-.8-44.89-1.59-64.93,5.72,6.74,2.35,14.08,3.26,21.35,4.07,110.9,12.44,223.52,8,335.35,3.5l191.36-7.68c26.93-1.08,54.76-2,80,5.59l-60.36,2.28" transform="translate(0 16.92)"/><path class="cls-8" d="M1512.11,53.16c-62.21,12.64-127.51,5-191.61,3-52.45-1.62-105,.63-157.37,2.88l-223.58,9.6c-22.87,1-46.4,2.09-67.16,9.93,24.24,2.78,48.83,2.45,73.31,2.12l447.84-6.06c47.59-.65,95.35-1.3,142.4-7.13" transform="translate(0 16.92)"/><path class="cls-8" d="M1568.08,99.32c-73.43-9.13-138.86-8.1-212.35.78-26.11,3.15-52,7.43-78.34,9.3-59.1,4.19-118.32-3.93-177.33-8.91A1685.29,1685.29,0,0,0,851.87,97.9" transform="translate(0 16.92)"/><path class="cls-8" d="M1386.18,88.28c-60.55-11.27-123.81,3.51-185.81.22-20.52-1.09-42.67-3.89-60.39,4.53a838.2,838.2,0,0,0,198.47-2.6c15.4-2.05,31.34-4.51,46.4-1.2" transform="translate(0 16.92)"/><path class="cls-8" d="M1592.2,119.05c-72-11.34-145.79,4.41-218.92,9.54C1206.89,140.26,1039.43,96.65,873.65,113" transform="translate(0 16.92)"/><path class="cls-8" d="M1630.17,149.28q-316.5-7.09-633.13-9.07c-40.7-.25-81.58-.43-121.88,4.19" transform="translate(0 16.92)"/><path class="cls-8" d="M1608.19,129.77l-67.8-.29c-10.27,0-21.66.24-29.11,6l111,3" transform="translate(0 16.92)"/><path class="cls-8" d="M841,126.41c33.36-3,77.75.65,111,4.19-32.62,6.38-76.68,2.82-110,6" transform="translate(0 16.92)"/><path class="cls-8" d="M843.36,156.86c81.63,9,164.45-1.26,246.83-1.11,19.49,0,39,.66,58.44-.46,18.48-1.08,37.7-3.65,55.09,1.53" transform="translate(0 16.92)"/><path class="cls-8" d="M1204.28,156.91c-61.43,8.47-124,9.37-186.33,10.25l-178.81,2.53" transform="translate(0 16.92)"/><path class="cls-9" d="M946.29,52.05q-39.85-2.56-79.71-5.12c-13.21-.84-26.39-1.41-39.61-.44-13,.95-26,2.53-39.06,3.47q-22.26,1.6-44.59,2c-1.93,0-1.85,2.76,0,2.95l38.63,4c12.65,1.31,25.32,2.82,38,3.23,25.44.82,50.79-2.88,76-5.34a395,395,0,0,1,42.67-2.28,1.47,1.47,0,0,0,0-2.94c-25.43-.28-50.66,3.29-75.93,5.69a368.69,368.69,0,0,1-38.17,2c-12.73-.13-25.4-1.55-38-2.85l-43.25-4.45v2.95q19.9-.33,39.78-1.64c13.06-.86,26.06-2.27,39.1-3.41,6.64-.58,13.28-1,19.95-1s13.09.32,19.63.71c13.2.78,26.39,1.68,39.58,2.53L946.29,55c1.89.12,1.89-2.82,0-2.94Z" transform="translate(0 16.92)"/><path class="cls-9" d="M628.11,21.43c57.68-2.38,115.42-4.74,173.16-3.31,28.62.71,57.19,1.8,85.83,1.05s57-2,85.54-2q48,.08,95.82,3.42c1.89.13,1.89-2.81,0-2.94q-43.05-3-86.22-3.37c-28.54-.24-57,.73-85.53,1.63s-57.17.32-85.8-.51-57.41-.87-86.12-.28c-32.24.67-64.46,2-96.68,3.32-1.89.08-1.9,3,0,2.95Z" transform="translate(0 16.92)"/><line class="cls-10" x1="842.26" y1="27.05" x2="842.26" y2="326.3"/><path class="cls-11" d="M637,6.65l-2.27-5.1L415.87,4.25,277.13,175.84s19.21,67.39,12.89,116c-2.64,20.31-15.54,49.84-17.84,57.6a14.52,14.52,0,0,0,3.56,2.69l269.33,7.73a390.79,390.79,0,0,0,14.28-68c4.08-36.42-12.9-116-12.9-116Z" transform="translate(0 16.92)"/><path class="cls-12" d="M634.71,1.55H412.31L273.57,173.14s19.21,67.39,12.89,116c-3,23.44-14.28,60.29-14.28,60.29l269.33,7.72a390.54,390.54,0,0,0,14.28-68c4.08-36.42-12.9-116-12.9-116Z" transform="translate(0 16.92)"/><g class="cls-13"><path class="cls-14" d="M248.62,170.1s34.17,4.71,36.82,3,24.93-1.67,29.47-2,46.85,2.39,54.78,2.48,54.41-1.51,62.72-1.14,50.25-.66,57,0,25.51,1.33,30.89,1.14,44,0,44,0l112-190.58L386.87-12.78Z" transform="translate(0 16.92)"/></g><path class="cls-1" d="M634.71,1.55H412.31L273.57,173.14s19.21,67.39,12.89,116c-3,23.44-14.28,60.29-14.28,60.29l269.33,7.72a390.54,390.54,0,0,0,14.28-68c4.08-36.42-12.9-116-12.9-116Z" transform="translate(0 16.92)"/><path class="cls-15" d="M307.09,165.54s-10,6.85,0,30.74c0,0,7.17-23.89,11.47-23.89s2.87,21.18,7.88,20.09,2.15-17.92,7.89-17.37,4.3,22.26,11.46,21.17,5-25.64,12.19-30.74-11.47-3-14.34,0-10,4.63-8.95,1.48,2.71-8.34-.87-7.61-10.15,10.91-12.18,9.59.87-8-2.7-6.59S309.3,162.93,307.09,165.54Z" transform="translate(0 16.92)"/><path class="cls-15" d="M397.64,165.91c-1.61,3.65-6.33,20.51-1.53,23.16s4.15-17,10.7-14.89,2.84,15.71,8.3,12.4S421.23,171,428.54,174s2.72,15.71,8.62,15.3,9.39-19.43,14.63-16.46,8.95,21.69,16.37,16.47,8.08-21.26,14-25.73-10.05-6.12-17-1.32-17,6.28-15.07,2.64,6.77-10.42-.87-6.78-16.6,13.73-17.69,10.09-2-12.14-6.33-8.88-8.52,13-9.83,10,.44-11.15-4.14-10S398.84,163.16,397.64,165.91Z" transform="translate(0 16.92)"/><path class="cls-15" d="M508.34,165.24c-4,4.9-7.64,16-4.8,21.51s5-8.93,9.82-8.77,3.28,12.9,8.08,10,3.71-9.68,7.86-13.48,13.32-12.74,6.33-12.08-19,11.42-18.12,7.12,4.59-10.59-.22-9.43S510.41,162.72,508.34,165.24Z" transform="translate(0 16.92)"/><path class="cls-16" d="M1045.37,6.65l2.28-5.1,218.84,2.7,138.74,171.59s-19.21,67.39-12.9,116c2.64,20.31,15.54,49.84,17.84,57.6a14.39,14.39,0,0,1-3.55,2.69l-269.33,7.73a390.79,390.79,0,0,1-14.28-68c-4.08-36.42,12.9-116,12.9-116Z" transform="translate(0 16.92)"/><path class="cls-17" d="M1047.65,1.55h222.4l138.74,171.59s-19.21,67.39-12.9,116c3,23.44,14.28,60.29,14.28,60.29l-269.32,7.72a390.54,390.54,0,0,1-14.28-68c-4.08-36.42,12.89-116,12.89-116Z" transform="translate(0 16.92)"/><g class="cls-18"><path class="cls-19" d="M1442.76,170.1s-34.17,4.71-36.81,3-24.94-1.67-29.47-2-46.85,2.39-54.79,2.48-54.41-1.51-62.72-1.14-50.25-.66-57,0-25.51,1.33-30.89,1.14-44,0-44,0l-112-190.58,289.46,4.14Z" transform="translate(0 16.92)"/></g><path class="cls-2" d="M1047.65,1.55h222.4l138.74,171.59s-19.21,67.39-12.9,116c3,23.44,14.28,60.29,14.28,60.29l-269.32,7.72a390.54,390.54,0,0,1-14.28-68c-4.08-36.42,12.89-116,12.89-116Z" transform="translate(0 16.92)"/><path class="cls-16" d="M1386.51,165.54s10,6.85,0,30.74c0,0-7.16-23.89-11.46-23.89s-2.87,21.18-7.89,20.09-2.15-17.92-7.88-17.37-4.3,22.26-11.46,21.17-5-25.64-12.19-30.74,11.47-3,14.34,0,10,4.63,8.94,1.48-2.7-8.34.87-7.61,10.15,10.91,12.18,9.59-.87-8,2.71-6.59S1384.31,162.93,1386.51,165.54Z" transform="translate(0 16.92)"/><path class="cls-16" d="M1296,165.91c1.6,3.65,6.33,20.51,1.53,23.16s-4.15-17-10.7-14.89-2.84,15.71-8.3,12.4S1272.38,171,1265.07,174s-2.73,15.71-8.62,15.3-9.39-19.43-14.63-16.46-9,21.69-16.38,16.47-8.07-21.26-14-25.73,10-6.12,17-1.32,17,6.28,15.07,2.64-6.77-10.42.87-6.78,16.59,13.73,17.69,10.09,2-12.14,6.33-8.88,8.51,13,9.82,10-.43-11.15,4.15-10S1294.76,163.16,1296,165.91Z" transform="translate(0 16.92)"/><path class="cls-16" d="M1185.27,165.24c4,4.9,7.64,16,4.8,21.51s-5-8.93-9.82-8.77-3.28,12.9-8.08,10-3.71-9.68-7.86-13.48S1151,161.77,1158,162.43s19,11.42,18.13,7.12-4.59-10.59.22-9.43S1183.2,162.72,1185.27,165.24Z" transform="translate(0 16.92)"/></g></g></svg>